<?xml version="1.0" standalone="no"?>
<!DOCTYPE svg PUBLIC "-//W3C//DTD SVG 20010904//EN"
 "http://www.w3.org/TR/2001/REC-SVG-20010904/DTD/svg10.dtd">
<svg version="1.0" xmlns="http://www.w3.org/2000/svg"
 width="6668.000000pt" height="3751.000000pt" viewBox="0 0 6668.000000 3751.000000"
 preserveAspectRatio="xMidYMid meet">

<g transform="translate(0.000000,3751.000000) scale(0.100000,-0.100000)"
fill="#000000" stroke="none">
<path d="M31415 29799 c-1082 -64 -2115 -408 -3016 -1005 -703 -466 -1301
-1066 -1762 -1769 -581 -888 -914 -1880 -987 -2945 -6 -88 -10 -870 -10 -1992
l0 -1848 665 0 665 0 0 1823 c0 1168 4 1871 10 1958 38 487 149 970 325 1414
60 151 212 466 294 610 716 1249 1977 2133 3374 2365 417 69 198 64 3070 67
l2597 4 0 -445 0 -444 -42 -83 c-32 -66 -59 -102 -127 -169 -89 -89 -169 -139
-281 -176 -53 -18 -158 -19 -2360 -25 -2036 -5 -2318 -7 -2420 -21 -185 -26
-296 -47 -440 -83 -1354 -340 -2390 -1484 -2589 -2860 -38 -259 -41 -430 -41
-2217 l0 -1738 1875 0 c1619 0 1896 2 2022 15 781 82 1509 431 2074 995 123
123 279 298 279 314 0 3 -1107 6 -2460 6 l-2460 0 2 728 3 727 2110 5 2109 5
8 35 c26 122 58 483 78 865 5 110 13 251 16 313 l6 112 -2106 0 c-1554 0
-2106 3 -2106 11 0 23 73 197 122 289 222 420 555 745 973 950 237 116 484
186 745 209 76 7 861 11 2320 11 2360 0 2292 -1 2506 50 117 27 214 59 214 71
0 5 6 9 13 9 24 0 279 130 365 186 129 84 196 138 311 249 179 173 297 336
407 560 108 222 169 437 193 679 7 71 11 481 11 1153 l0 1043 -3212 -1 c-1767
-1 -3271 -5 -3343 -10z"/>
<path d="M36890 22880 c-313 -44 -580 -173 -802 -388 -214 -207 -343 -434
-409 -721 -26 -110 -37 -383 -20 -503 15 -102 52 -246 84 -326 l25 -59 -77
-101 c-456 -600 -1047 -1084 -1726 -1417 -502 -246 -971 -384 -1565 -462 -124
-16 -292 -18 -2097 -20 l-1963 -4 0 -665 0 -665 1998 4 c2142 3 2033 1 2397
52 890 126 1758 458 2515 960 360 239 619 452 951 784 240 240 383 402 537
608 l77 102 55 -7 c30 -4 134 -7 230 -6 152 0 190 4 287 27 559 130 987 577
1089 1137 24 132 24 382 0 510 -111 578 -541 1018 -1114 1140 -111 24 -366 35
-472 20z m299 -945 c212 -56 371 -256 371 -467 0 -355 -375 -594 -695 -442
-217 102 -328 356 -256 584 76 240 341 389 580 325z"/>
<path d="M26650 18565 c558 -558 1016 -1015 1017 -1015 2 0 3 457 3 1015 l0
1015 -1017 0 -1018 0 1015 -1015z"/>
<path d="M11920 10615 l0 -2865 405 0 405 0 0 205 c0 113 3 205 6 205 3 0 40
-31 81 -70 236 -220 493 -341 813 -380 413 -50 847 90 1124 364 211 208 322
420 370 706 74 445 74 1584 0 2025 -34 205 -102 364 -230 536 -142 191 -255
291 -431 382 -197 102 -409 149 -673 150 -186 0 -311 -20 -450 -73 -155 -60
-395 -215 -541 -348 -31 -29 -60 -52 -63 -52 -3 0 -6 468 -6 1040 l0 1040
-405 0 -405 0 0 -2865z m1899 415 c46 -11 112 -34 145 -50 75 -35 171 -121
221 -195 46 -71 109 -236 143 -380 l27 -110 0 -490 c0 -473 -1 -494 -23 -597
-51 -237 -119 -385 -227 -494 -132 -133 -306 -194 -553 -194 -251 0 -403 58
-553 210 -185 187 -260 495 -261 1060 0 439 44 711 149 912 94 180 287 314
501 348 95 15 335 4 431 -20z"/>
<path d="M15960 13070 l0 -410 410 0 410 0 0 410 0 410 -410 0 -410 0 0 -410z"/>
<path d="M25610 10615 l0 -2865 410 0 410 0 0 1288 c0 1216 1 1292 19 1377 40
192 102 307 235 432 96 90 182 140 311 179 82 25 104 27 245 27 181 0 262 -17
388 -83 200 -104 326 -264 390 -498 l27 -97 3 -1312 2 -1313 410 0 410 0 0
1388 c0 1520 0 1525 -59 1753 -77 297 -222 518 -455 693 -335 251 -705 340
-1126 270 -269 -45 -504 -169 -707 -373 l-93 -94 0 1046 0 1047 -410 0 -410 0
0 -2865z"/>
<path d="M9355 11869 c-430 -45 -830 -255 -1070 -564 -82 -105 -136 -194 -206
-340 -155 -324 -216 -621 -226 -1100 -10 -489 40 -811 177 -1130 109 -256 209
-414 350 -555 105 -105 174 -155 357 -254 277 -152 507 -212 858 -223 353 -11
611 41 902 182 208 100 417 250 576 413 l59 59 -274 233 c-150 128 -283 242
-295 253 l-22 20 -57 -49 c-213 -186 -387 -277 -615 -324 -89 -19 -127 -21
-264 -17 -267 8 -434 67 -616 220 -201 169 -319 433 -319 713 l0 74 1270 0
1270 0 0 394 c0 407 -7 528 -41 704 -40 209 -132 429 -251 604 -78 116 -252
291 -378 381 -115 81 -321 186 -448 227 -230 74 -503 103 -737 79z m402 -789
c290 -69 500 -275 583 -572 26 -94 50 -238 50 -305 l0 -53 -860 0 -860 0 0 48
c0 135 51 336 122 482 44 91 62 115 142 195 77 77 106 98 186 138 150 73 277
99 450 91 58 -2 142 -13 187 -24z"/>
<path d="M18880 11870 c-437 -46 -763 -194 -1017 -463 -93 -98 -112 -126 -92
-138 8 -4 151 -114 319 -242 l305 -235 20 27 c166 220 337 284 770 285 243 0
328 -9 471 -55 182 -58 294 -162 340 -314 16 -51 19 -98 19 -320 l0 -260 -675
-6 c-465 -4 -698 -10 -749 -18 -303 -51 -519 -152 -696 -326 -223 -220 -328
-465 -342 -797 -16 -388 96 -672 365 -930 227 -218 494 -330 877 -369 132 -13
420 -7 544 11 293 44 509 160 626 335 20 31 41 53 46 50 5 -4 9 -83 9 -181 l0
-174 405 0 405 0 0 1463 c0 964 -4 1491 -11 1547 -44 362 -175 620 -398 788
-206 155 -507 264 -851 307 -147 19 -568 28 -690 15z m1138 -2535 c4 -174 -12
-380 -38 -478 -42 -166 -120 -262 -250 -311 -145 -53 -244 -68 -517 -73 -284
-6 -368 2 -507 48 -100 33 -170 76 -245 150 -96 95 -141 195 -141 318 0 234
137 388 404 451 142 34 215 37 766 36 l525 -1 3 -140z"/>
<path d="M23065 11874 c-348 -29 -609 -112 -851 -272 -250 -164 -395 -375
-465 -672 -29 -123 -37 -391 -15 -524 59 -358 263 -624 614 -800 195 -98 338
-126 867 -171 487 -41 588 -54 679 -91 128 -51 194 -136 216 -281 23 -147 -20
-277 -128 -382 -103 -102 -249 -166 -447 -198 -121 -19 -445 -13 -570 10 -355
67 -628 200 -862 421 l-83 78 -282 -277 c-156 -152 -284 -280 -286 -284 -4
-11 148 -137 280 -233 346 -253 725 -410 1148 -475 144 -22 546 -25 690 -4
256 35 469 96 655 186 405 196 628 469 691 846 24 147 15 413 -19 559 -53 225
-140 393 -277 531 -136 138 -293 221 -524 279 -145 36 -214 45 -683 80 -523
40 -629 64 -760 176 -99 85 -133 174 -114 300 30 202 167 345 381 398 247 61
633 35 898 -63 106 -38 304 -141 423 -220 88 -58 94 -60 110 -44 102 109 490
576 483 582 -194 170 -529 362 -762 435 -134 42 -319 81 -457 96 -107 11 -468
21 -550 14z"/>
<path d="M30780 11869 c-392 -35 -729 -181 -974 -424 -45 -44 -96 -99 -114
-122 l-32 -41 321 -245 322 -245 43 58 c81 111 216 194 364 224 225 47 591 43
792 -8 173 -44 314 -139 366 -247 45 -94 52 -148 52 -416 l0 -253 -614 0
c-356 0 -657 -4 -717 -10 -357 -37 -608 -147 -811 -358 -101 -105 -156 -183
-215 -308 -87 -184 -125 -421 -104 -647 28 -298 133 -522 341 -727 207 -205
424 -312 750 -372 159 -30 550 -32 715 -4 301 50 530 182 621 358 8 15 19 28
24 28 6 0 10 -70 10 -180 l0 -180 410 0 411 0 -4 1498 c-3 1490 -3 1498 -25
1610 -49 256 -139 446 -281 596 -264 277 -772 430 -1406 425 -82 -1 -193 -6
-245 -10z m1140 -2592 c0 -226 -10 -339 -41 -442 -44 -148 -98 -220 -202 -269
-150 -70 -315 -96 -623 -96 -375 0 -525 44 -685 200 -119 118 -163 239 -140
392 30 195 159 318 397 378 131 33 211 37 767 39 l527 1 0 -203z"/>
<path d="M35205 11870 c-315 -36 -572 -158 -792 -376 -57 -55 -105 -99 -108
-96 -3 3 -5 101 -5 219 l0 213 -410 0 -410 0 0 -2040 0 -2040 410 0 410 0 0
1258 c0 744 5 1287 10 1331 22 164 74 306 151 408 93 123 266 239 425 285 105
30 305 32 404 4 87 -24 196 -75 281 -132 43 -28 74 -43 80 -37 5 5 139 164
299 353 l289 345 -22 18 c-107 87 -275 180 -404 223 -173 58 -425 84 -608 64z"/>
<path d="M37640 11869 c-392 -35 -729 -181 -974 -424 -45 -44 -96 -99 -114
-122 l-32 -41 321 -245 322 -245 43 58 c81 111 216 194 364 224 225 47 591 43
792 -8 173 -44 314 -139 366 -247 45 -94 52 -148 52 -416 l0 -253 -614 0
c-356 0 -657 -4 -717 -10 -357 -37 -608 -147 -811 -358 -101 -105 -156 -183
-215 -308 -87 -184 -126 -426 -104 -649 29 -298 134 -521 341 -725 207 -205
424 -312 750 -372 159 -30 550 -32 715 -4 301 50 530 182 621 358 8 15 19 28
24 28 6 0 10 -70 10 -180 l0 -180 410 0 411 0 -4 1498 c-3 1490 -3 1498 -25
1610 -49 256 -139 446 -281 596 -264 277 -772 430 -1406 425 -82 -1 -193 -6
-245 -10z m1140 -2592 c0 -226 -10 -339 -41 -442 -44 -148 -98 -220 -202 -269
-150 -70 -315 -96 -623 -96 -375 0 -525 44 -685 200 -119 118 -163 239 -140
392 30 195 159 318 397 378 131 33 211 37 767 39 l527 1 0 -203z"/>
<path d="M43918 11870 c-296 -31 -582 -134 -822 -294 -314 -211 -504 -443
-640 -780 -156 -387 -212 -969 -140 -1466 75 -524 264 -904 581 -1170 418
-352 896 -503 1424 -450 128 13 304 52 418 92 109 38 304 139 424 219 151 102
338 262 407 349 l29 37 -299 267 -300 266 -97 -100 c-152 -159 -308 -250 -508
-296 -64 -15 -118 -19 -275 -18 -178 0 -204 3 -295 27 -316 84 -520 282 -629
608 -162 485 -110 1150 116 1496 182 279 488 419 873 400 307 -16 569 -140
751 -356 48 -57 61 -67 73 -58 50 41 587 520 589 527 6 16 -246 258 -351 336
-259 195 -513 302 -823 349 -125 19 -392 27 -506 15z"/>
<path d="M47480 11869 c-187 -15 -376 -58 -513 -115 -232 -98 -493 -307 -661
-531 -125 -166 -222 -386 -265 -598 -89 -438 -88 -1240 0 -1670 80 -382 320
-746 629 -951 128 -85 319 -184 424 -219 325 -109 788 -111 1122 -4 103 33
306 129 384 182 165 112 378 330 482 493 14 22 44 76 66 120 139 277 186 583
186 1214 0 762 -71 1095 -303 1410 -24 32 -109 126 -190 208 -161 164 -271
245 -441 326 -239 113 -582 163 -920 135z m415 -838 c103 -27 231 -88 304
-146 69 -54 178 -196 220 -285 39 -84 67 -193 83 -327 18 -149 18 -821 0 -963
-34 -268 -107 -430 -260 -571 -170 -157 -377 -228 -630 -216 -219 10 -380 77
-557 232 -104 91 -195 284 -230 490 -44 264 -45 836 0 1095 40 235 148 433
297 545 109 82 229 134 371 161 101 19 299 12 402 -15z"/>
<path d="M51815 11870 c-318 -36 -575 -159 -800 -381 -50 -49 -94 -89 -98 -89
-4 0 -7 97 -7 215 l0 215 -410 0 -410 0 0 -2040 0 -2040 410 0 410 0 0 1264
c0 855 4 1290 11 1343 14 105 60 244 106 322 46 78 166 202 247 256 162 106
393 148 611 110 308 -54 531 -259 618 -570 l22 -80 3 -1322 2 -1323 410 0 409
0 4 1298 c3 1152 5 1305 19 1367 64 275 196 450 423 560 113 54 192 74 325 82
119 6 213 -5 327 -42 113 -36 197 -88 293 -185 100 -99 154 -193 197 -341 l28
-94 3 -1322 2 -1323 411 0 410 0 -4 1463 c-3 1328 -5 1470 -20 1547 -63 315
-168 525 -356 710 -195 194 -458 333 -729 387 -120 24 -425 24 -578 0 -350
-54 -635 -193 -879 -429 l-80 -78 -80 79 c-330 324 -578 431 -1025 445 -80 3
-181 1 -225 -4z"/>
<path d="M15960 9790 l0 -2040 410 0 410 0 0 2040 0 2040 -410 0 -410 0 0
-2040z"/>
<path d="M40690 8155 l0 -405 410 0 410 0 0 405 0 405 -410 0 -410 0 0 -405z"/>
</g>
</svg>
